<svg width="182" height="36" viewBox="0 0 182 36" fill="none" xmlns="http://www.w3.org/2000/svg">
<g clip-path="url(#clip0_187_94)">
<path d="M0.287173 35.72V36H182V0H0V36H0.287173V35.72H0.57057V0.563725H181.426V35.4362H0.287173V35.72Z" fill="white"/>
<path d="M33.2893 35.72C32.972 35.72 32.972 35.44 32.972 35.44C32.4656 29.7206 32.2994 23.9788 32.4278 18.2408C32.5374 13.3465 32.8208 8.46337 32.8283 3.56902L32.7453 3.48689H30.1947L30.1116 3.40476V2.60583L30.1947 2.5237H32.7453L32.8283 2.44157V0.362131L32.9115 0.279999H33.6597L33.7428 0.362131V2.4341L33.8259 2.51623H36.3765L36.4596 2.59837V3.39729L36.3765 3.47942H33.8259L33.739 3.56155C33.7465 8.45588 34.0299 13.339 34.1395 18.2333C34.268 23.9714 34.1018 29.7132 33.5954 35.4325C33.5954 35.4325 33.5954 35.7125 33.2818 35.7125" fill="white"/>
<path d="M37.5329 6.29804C36.951 8.84417 36.3691 11.4686 36.3539 14.0857C36.3351 17.3635 37.2344 20.2045 38.8138 23.0642L38.8252 23.0866L44.1454 34.3051C44.2285 34.4843 44.1605 34.6934 43.9867 34.7867C43.8129 34.88 43.5975 34.824 43.4917 34.6598L36.9396 24.3037C35.8967 22.8178 35.175 21.2013 34.8085 19.4317C33.8978 15.0302 35.3224 10.2217 36.8225 6.09272C36.8868 5.90982 37.087 5.80902 37.2759 5.86499C37.4649 5.91725 37.582 6.11136 37.5366 6.30181" fill="white"/>
<path d="M23.7788 7.88092C23.6995 7.70922 23.7599 7.50762 23.9262 7.41054C24.0886 7.31351 24.3003 7.35456 24.4174 7.50391C28.6645 13.0329 29.4807 18.3901 23.28 22.8215C22.018 23.725 20.7219 24.5874 19.4145 25.4274C17.99 26.342 16.5503 27.2343 15.0994 28.1153C13.5123 29.0748 11.9178 30.023 10.3156 30.9601C10.1456 31.0609 9.92271 31.0086 9.81311 30.8443C9.7073 30.6801 9.74512 30.4598 9.90756 30.3441L22.086 21.5821C23.6919 20.4285 25.2147 18.9837 25.7739 17.0424C26.1518 15.7321 26.0384 14.3806 25.7361 13.0665C25.3243 11.3006 24.5534 9.52356 23.7864 7.88469" fill="white"/>
<path d="M26.0571 6.91033C25.9967 6.72737 26.0911 6.53326 26.2687 6.45859C26.4463 6.38763 26.6503 6.45859 26.7373 6.63406C27.7386 8.62387 28.6908 10.7481 29.2425 12.9097C29.6959 14.6867 29.8773 16.531 29.4692 18.3341C28.9515 20.604 27.595 22.4072 25.8493 23.9154C24.2169 25.3266 22.5657 26.7191 20.888 28.0818C19.5088 29.2017 18.1107 30.2956 16.6975 31.3708C15.9456 31.9457 15.1899 32.5131 14.4341 33.0806C14.2792 33.2001 14.0601 33.1777 13.9316 33.032C13.8069 32.8865 13.8182 32.67 13.9542 32.5318L24.6666 22.1757C25.9551 20.9325 27.168 19.5213 27.7008 17.7891C28.1429 16.348 28.0673 14.8435 27.8217 13.3763C27.6555 12.402 27.4136 11.4351 27.1529 10.483C26.8204 9.28471 26.4425 8.09752 26.0571 6.91776" fill="white"/>
<path d="M29.1065 6.29802C29.0611 6.10763 29.1782 5.91723 29.3672 5.86126C29.5561 5.80524 29.7564 5.90603 29.8206 6.08899C31.3207 10.2142 32.7453 15.0227 31.8346 19.428C31.4681 21.1975 30.7464 22.8141 29.7035 24.2962L23.1514 34.656C23.0456 34.8203 22.8302 34.88 22.6564 34.783C22.4826 34.6896 22.4146 34.4806 22.4977 34.3014L27.8179 23.0828L27.8293 23.0604C29.4087 20.197 30.3081 17.3597 30.2892 14.0819C30.274 11.4649 29.6921 8.83666 29.1102 6.2943" fill="white"/>
<path d="M42.8644 7.88091C42.0973 9.51984 41.3265 11.3006 40.9146 13.0627C40.6086 14.3768 40.499 15.7283 40.8768 17.0387C41.4361 18.98 42.9588 20.4248 44.5647 21.5783L56.7432 30.3403C56.9021 30.456 56.9433 30.6763 56.8337 30.8406C56.724 31.0049 56.5013 31.0571 56.3313 30.9563C54.7292 30.0193 53.1346 29.071 51.5476 28.1116C50.0966 27.2343 48.657 26.342 47.2324 25.4236C45.925 24.5836 44.629 23.7213 43.3669 22.8178C37.1663 18.3864 37.9824 13.0291 42.2295 7.50012C42.3429 7.35084 42.5545 7.30973 42.7208 7.40681C42.8833 7.5039 42.9475 7.7055 42.8681 7.87719" fill="white"/>
<path d="M40.5821 6.91033C40.1967 8.09002 39.8188 9.28093 39.4863 10.4756C39.2218 11.4276 38.9838 12.3945 38.8175 13.3689C38.5719 14.8361 38.4963 16.3406 38.9384 17.7816C39.4712 19.5139 40.6841 20.925 41.9727 22.1682L52.6849 32.5243C52.8248 32.6587 52.8361 32.8753 52.7076 33.0246C52.5791 33.1739 52.36 33.1926 52.2051 33.0731C51.4456 32.5094 50.6936 31.9382 49.9417 31.3633C48.5285 30.2844 47.1304 29.1905 45.7513 28.0743C44.0735 26.7116 42.4223 25.3191 40.7899 23.9079C39.0404 22.3997 37.6877 20.5965 37.17 18.3267C36.7619 16.5235 36.9395 14.6792 37.393 12.9022C37.9446 10.7444 38.8969 8.61644 39.8982 6.62657C39.9851 6.45487 40.1891 6.38392 40.3667 6.4511C40.5443 6.52577 40.6388 6.71993 40.5783 6.90284" fill="white"/>
<path d="M79.4148 28.7313C78.4929 29.1868 76.4259 29.6721 73.7321 29.6721C66.0762 29.6721 62.1316 24.9644 62.1316 18.7336C62.1316 11.267 67.5198 7.10815 74.2233 7.10815C76.8188 7.10815 78.7914 7.62708 79.6793 8.08253L78.6591 12.01C77.6389 11.5881 76.2259 11.1998 74.4533 11.1998C70.4787 11.1998 67.3875 13.5705 67.3875 18.4387C67.3875 22.8215 70.0136 25.5805 74.4839 25.5805C75.9952 25.5805 77.6728 25.2556 78.6552 24.8674L79.4109 28.7313H79.4148Z" fill="white"/>
<path d="M91.1776 29.3473L90.8831 27.7569H90.7848C89.734 29.0225 88.0904 29.7057 86.1861 29.7057C82.9328 29.7057 80.9946 27.3686 80.9946 24.8375C80.9946 20.7122 84.7426 18.7336 90.4258 18.7672V18.5395C90.4258 17.6957 89.9646 16.4936 87.5008 16.4936C85.8572 16.4936 84.1158 17.0462 83.065 17.6957L82.1431 14.515C83.2617 13.899 85.4644 13.1187 88.3854 13.1187C93.7431 13.1187 95.4512 16.236 95.4512 19.9693V25.4871C95.4512 27.014 95.5156 28.4737 95.6818 29.351H91.1815L91.1776 29.3473ZM90.5847 21.8471C87.9547 21.8136 85.9177 22.4295 85.9177 24.3484C85.9177 25.614 86.7717 26.23 87.8903 26.23C89.1371 26.23 90.1574 25.4199 90.4863 24.4119C90.5502 24.1506 90.5847 23.8594 90.5847 23.5682V21.8471Z" fill="white"/>
<path d="M104.554 8.92627V13.4697H108.136V17.1059H104.554V22.8514C104.554 24.7666 105.015 25.6439 106.526 25.6439C107.15 25.6439 107.644 25.5804 108.003 25.5132L108.038 29.2465C107.38 29.5078 106.198 29.6684 104.784 29.6684C103.175 29.6684 101.826 29.1158 101.04 28.3057C100.117 27.3649 99.6608 25.838 99.6608 23.5981V17.1059H97.5254V13.4697H99.6608V10.0276L104.558 8.92627H104.554Z" fill="white"/>
<path d="M126.568 21.2312C126.568 27.0438 122.393 29.7057 118.089 29.7057C113.388 29.7057 109.776 26.6556 109.776 21.5224C109.776 16.3891 113.195 13.115 118.353 13.115C123.511 13.115 126.568 16.46 126.568 21.2312ZM114.933 21.3917C114.933 24.1207 116.082 26.1628 118.221 26.1628C120.159 26.1628 121.406 24.2476 121.406 21.3917C121.406 19.0211 120.484 16.6206 118.221 16.6206C115.821 16.6206 114.933 19.0546 114.933 21.3917ZM123.413 6.55566L119.404 11.491H115.954L118.78 6.55566H123.413Z" fill="white"/>
<path d="M134.488 6.29803H129.492V29.3473H134.488V6.29803Z" fill="white"/>
<path d="M143.522 9.05697C143.522 10.4196 142.472 11.5247 140.828 11.5247C139.185 11.5247 138.198 10.4196 138.232 9.05697C138.198 7.62707 139.253 6.55566 140.862 6.55566C142.472 6.55566 143.492 7.62707 143.526 9.05697M138.369 13.4734H143.364V29.3473H138.369V13.4734Z" fill="white"/>
<path d="M159.26 28.959C158.372 29.3473 156.699 29.6721 154.79 29.6721C149.598 29.6721 146.281 26.5548 146.281 21.5559C146.281 16.9117 149.5 13.115 155.482 13.115C156.797 13.115 158.24 13.3428 159.295 13.731L158.504 17.4008C157.915 17.1395 157.027 16.9155 155.712 16.9155C153.086 16.9155 151.374 18.7672 151.409 21.3618C151.409 24.285 153.381 25.8082 155.811 25.8082C156.993 25.8082 157.915 25.614 158.671 25.3228L159.26 28.959Z" fill="white"/>
<path d="M171.121 29.3473L170.827 27.7569H170.728C169.678 29.0225 168.034 29.7057 166.13 29.7057C162.876 29.7057 160.938 27.3686 160.938 24.8375C160.938 20.7122 164.683 18.7336 170.369 18.7672V18.5395C170.369 17.6957 169.908 16.4936 167.445 16.4936C165.801 16.4936 164.059 17.0462 163.009 17.6957L162.091 14.515C163.209 13.899 165.408 13.1187 168.333 13.1187C173.691 13.1187 175.399 16.236 175.399 19.9693V25.4871C175.399 27.014 175.463 28.4737 175.629 29.351H171.129L171.121 29.3473ZM170.532 21.8471C167.902 21.8136 165.865 22.4295 165.865 24.3484C165.865 25.614 166.719 26.23 167.838 26.23C169.089 26.23 170.105 25.4199 170.434 24.4119C170.498 24.1506 170.532 23.8594 170.532 23.5682V21.8471Z" fill="white"/>
</g>
<defs>
<clipPath id="clip0_187_94">
<rect width="182" height="36" fill="white"/>
</clipPath>
</defs>
</svg>
